<svg xmlns="http://www.w3.org/2000/svg" viewBox="0 0 100 100" fill="none">
  <rect width="100" height="100" rx="22" fill="#111" />
  <!-- Top Face of Cube -->
  <polygon points="50,16 78,30 50,44 22,30" fill="white" fill-opacity="0.2" stroke="white" stroke-width="4.5" stroke-linejoin="round" />
  <polygon points="50,23 68,32 50,41 32,32" fill="none" stroke="white" stroke-width="2.5" stroke-linejoin="round" />

  <!-- Left Face of Cube -->
  <polygon points="22,30 50,44 50,70 22,56" fill="white" fill-opacity="0.1" stroke="white" stroke-width="4.5" stroke-linejoin="round" />
  <line x1="22" y1="39" x2="50" y2="53" stroke="white" stroke-width="2.5" />
  <line x1="22" y1="47" x2="50" y2="61" stroke="white" stroke-width="2.5" />

  <!-- Right Face of Cube -->
  <polygon points="50,44 78,30 78,56 50,70" fill="white" stroke="white" stroke-width="4.5" stroke-linejoin="round" />
  <line x1="57" y1="48" x2="71" y2="41" stroke="#111" stroke-width="2.5" stroke-linecap="round" />
  <line x1="57" y1="56" x2="71" y2="49" stroke="#111" stroke-width="2.5" stroke-linecap="round" />

  <!-- Left Hand -->
  <path d="M 12,70 C 10,52 20,40 30,32 C 31,40 28,50 34,57 C 38,62 45,66 49,71 C 43,76 36,84 32,90 C 22,90 15,82 12,70 Z" fill="#111" stroke="white" stroke-width="4.5" stroke-linecap="round" stroke-linejoin="round" />
  <path d="M 24,48 C 20,58 18,69 22,79" stroke="white" stroke-width="3" stroke-linecap="round" />

  <!-- Right Hand -->
  <path d="M 88,70 C 90,52 80,40 70,32 C 69,40 72,50 66,57 C 62,62 55,66 51,71 C 57,76 64,84 68,90 C 78,90 85,82 88,70 Z" fill="#111" stroke="white" stroke-width="4.5" stroke-linecap="round" stroke-linejoin="round" />
  <path d="M 76,48 C 80,58 82,69 78,79" stroke="white" stroke-width="3" stroke-linecap="round" />
</svg>