<svg xmlns="http://www.w3.org/2000/svg" viewBox="0 0 100 100" fill="none">
  <rect width="100" height="100" rx="20" fill="white" />
  <!-- 3D Cube -->
  <polygon points="50,16 76,29 50,42 24,29" fill="white" stroke="#111" stroke-width="4" stroke-linejoin="round" />
  <polygon points="50,22 68,31 50,40 32,31" fill="none" stroke="#111" stroke-width="2.5" stroke-linejoin="round" />
  <polygon points="24,29 50,42 50,66 24,53" fill="white" stroke="#111" stroke-width="4" stroke-linejoin="round" />
  <line x1="24" y1="37" x2="50" y2="50" stroke="#111" stroke-width="2.5" />
  <line x1="24" y1="45" x2="50" y2="58" stroke="#111" stroke-width="2.5" />
  <polygon points="50,42 76,29 76,53 50,66" fill="#111" stroke="#111" stroke-width="4" stroke-linejoin="round" />
  <line x1="56" y1="46" x2="70" y2="39" stroke="#fff" stroke-width="2" />
  <line x1="56" y1="53" x2="70" y2="46" stroke="#fff" stroke-width="2" />
  <!-- Hands -->
  <path d="M 18,65 C 16,52 24,42 32,36 C 33,42 30,50 35,56 C 38,60 44,63 48,67 C 44,72 38,78 35,84 C 28,84 21,78 18,65 Z" fill="white" stroke="#111" stroke-width="3.5" stroke-linecap="round" stroke-linejoin="round" />
  <path d="M 28,45 C 24,54 22,64 26,73" stroke="#111" stroke-width="3" stroke-linecap="round" />
  <path d="M 82,65 C 84,52 76,42 68,36 C 67,42 70,50 65,56 C 62,60 56,63 52,67 C 56,72 62,78 65,84 C 72,84 79,78 82,65 Z" fill="white" stroke="#111" stroke-width="3.5" stroke-linecap="round" stroke-linejoin="round" />
  <path d="M 72,45 C 76,54 78,64 74,73" stroke="#111" stroke-width="3" stroke-linecap="round" />
</svg>